<svg xmlns="http://www.w3.org/2000/svg" width="17.514" height="23.51" viewBox="0 0 17.514 23.51">
  <defs>
    <style>
      .cls-1 {
        fill: #3b5e1c;
      }
    </style>
  </defs>
  <g id="Files" transform="translate(-1572.324 -606.001)">
    <path id="Fill_416" data-name="Fill 416" class="cls-1" d="M1585.46,629.51H1573.3a.977.977,0,0,1-.973-.979V610.9a.977.977,0,0,1,.973-.979h2.919V606.98a.977.977,0,0,1,.973-.979H1584a.974.974,0,0,1,.688.287l4.865,4.9a.992.992,0,0,1,.285.692v12.735a.978.978,0,0,1-.974.98h-2.432v2.938A.977.977,0,0,1,1585.46,629.51Zm-11.19-17.633v15.673h10.216v-1.958h-7.3a.978.978,0,0,1-.973-.98V611.878Zm3.892-3.918v15.674h9.73V612.867H1584a.978.978,0,0,1-.973-.98V607.96Zm6.811,1.385v1.562h1.552l-1.552-1.562Z"/>
    <path id="Fill_417" data-name="Fill 417" class="cls-1" d="M1580.595,616.041a.735.735,0,0,1,0-1.47h2.432a.735.735,0,0,1,0,1.47h-2.432"/>
    <path id="Fill_418" data-name="Fill 418" class="cls-1" d="M1585.459,617.511a.735.735,0,0,1,0,1.469h-4.865a.735.735,0,0,1,0-1.469h4.865"/>
    <path id="Fill_419" data-name="Fill 419" class="cls-1" d="M1585.459,620.449a.735.735,0,0,1,0,1.469h-4.865a.735.735,0,0,1,0-1.469h4.865"/>
  </g>
</svg>
