<svg xmlns="http://www.w3.org/2000/svg" xmlns:xlink="http://www.w3.org/1999/xlink" width="126" height="89" viewBox="0 0 126 89">
  <defs>
    <style>
      .cls-1 {
        fill: #fff;
        stroke: #707070;
      }

      .cls-2 {
        clip-path: url(#clip-path);
      }

      .cls-3 {
        fill: #1d2024;
      }

      .cls-4 {
        fill: #77bc38;
      }

      .cls-11, .cls-5, .cls-6, .cls-7 {
        fill: #2a2b31;
      }

      .cls-5 {
        font-size: 32px;
        font-family: Montserrat-Light, Montserrat;
        font-weight: 300;
      }

      .cls-6 {
        font-size: 25px;
      }

      .cls-6, .cls-7 {
        font-family: Montserrat-Regular, Montserrat;
      }

      .cls-7 {
        font-size: 20px;
      }

      .cls-8 {
        fill: #3b5e1c;
      }

      .cls-9 {
        fill: #598d2a;
      }

      .cls-10 {
        clip-path: url(#clip-path-2);
      }

      .cls-12 {
        fill: #e0d6e3;
        font-size: 14px;
        font-family: SegoeUI, Segoe UI;
      }

      .cls-13 {
        fill: none;
        stroke: #404149;
        stroke-linecap: round;
        stroke-width: 3px;
      }
    </style>
    <clipPath id="clip-path">
      <rect id="Rectangle_138" data-name="Rectangle 138" class="cls-1" width="126" height="89" transform="translate(-61 -30)"/>
    </clipPath>
    <clipPath id="clip-path-2">
      <rect id="Rectangle_137" data-name="Rectangle 137" class="cls-1" width="28" height="29" transform="translate(37 647)"/>
    </clipPath>
  </defs>
  <g id="Groupe_de_masques_6" data-name="Groupe de masques 6" class="cls-2" transform="translate(61 30)">
    <g id="Groupe_220" data-name="Groupe 220" transform="translate(-56)">
      <path id="Tracé_425" data-name="Tracé 425" class="cls-3" d="M0,0H102V714H0Z" transform="translate(-49)"/>
      <g id="logo_small" data-name="logo small" transform="translate(1 17)">
        <rect id="Rectangle_2" data-name="Rectangle 2" class="cls-4" width="39" height="38" rx="19" transform="translate(0 1)"/>
        <text id="C" class="cls-5" transform="translate(6)"><tspan x="-11.456" y="31">C</tspan></text>
        <text id="e" class="cls-6" transform="translate(7 3)"><tspan x="-7.55" y="24">e</tspan></text>
        <text id="t" class="cls-7" transform="translate(18 8)"><tspan x="-4.06" y="19">t</tspan></text>
      </g>
      <g id="Navigation" transform="translate(-1581.755 -211)">
        <g id="Separators" transform="translate(21)">
          <rect id="Separator" class="cls-8" width="20" height="1" transform="translate(1571 440)"/>
          <rect id="Separator-2" data-name="Separator" class="cls-8" width="20" height="1" transform="translate(1571 511)"/>
          <rect id="Separator-3" data-name="Separator" class="cls-8" width="20" height="1" transform="translate(1571 582)"/>
        </g>
        <g id="Files" transform="translate(20.676)">
          <path id="Fill_416" data-name="Fill 416" class="cls-8" d="M1585.46,629.51H1573.3a.977.977,0,0,1-.973-.979V610.9a.977.977,0,0,1,.973-.979h2.919V606.98a.977.977,0,0,1,.973-.979H1584a.974.974,0,0,1,.688.287l4.865,4.9a.992.992,0,0,1,.285.692v12.735a.978.978,0,0,1-.974.98h-2.432v2.938A.977.977,0,0,1,1585.46,629.51Zm-11.19-17.633v15.673h10.216v-1.958h-7.3a.978.978,0,0,1-.973-.98V611.878Zm3.892-3.918v15.674h9.73V612.867H1584a.978.978,0,0,1-.973-.98V607.96Zm6.811,1.385v1.562h1.552l-1.552-1.562Z"/>
          <path id="Fill_417" data-name="Fill 417" class="cls-8" d="M1580.595,616.041a.735.735,0,0,1,0-1.47h2.432a.735.735,0,0,1,0,1.47h-2.432"/>
          <path id="Fill_418" data-name="Fill 418" class="cls-8" d="M1585.459,617.511a.735.735,0,0,1,0,1.469h-4.865a.735.735,0,0,1,0-1.469h4.865"/>
          <path id="Fill_419" data-name="Fill 419" class="cls-8" d="M1585.459,620.449a.735.735,0,0,1,0,1.469h-4.865a.735.735,0,0,1,0-1.469h4.865"/>
        </g>
        <g id="Messages" transform="translate(20.674)">
          <path id="Fill_327" data-name="Fill 327" class="cls-8" d="M1591.857,556.965a.974.974,0,0,1-.656-.255l-3.6-3.306h-12.8a.991.991,0,0,1-.979-1V550.08l-2.86,2.63a.972.972,0,0,1-.657.256.9.9,0,0,1-.4-.085,1,1,0,0,1-.583-.915V537.33a.991.991,0,0,1,.979-1h17.055a.991.991,0,0,1,.98,1v3h3.516a.991.991,0,0,1,.979,1v14.635a1,1,0,0,1-.582.914A.909.909,0,0,1,1591.857,556.965Zm-3.875-5.56a.958.958,0,0,1,.657.26l2.238,2.055V542.33h-2.537v6.075a.991.991,0,0,1-.98,1h-11.578v2Zm-16.7-13.075v11.39l2.238-2.055a.956.956,0,0,1,.3-.191.971.971,0,0,1,.357-.069h12.2V538.33Z"/>
        </g>
        <g id="Shopping" transform="translate(20.674)">
          <path id="Fill_237" data-name="Fill 237" class="cls-8" d="M1588.429,486h-14.694a.983.983,0,0,1-.954-.77L1571,477.5h-.694a.991.991,0,0,1-.979-1V472a.991.991,0,0,1,.979-1h1.643l6.11-4.5a.965.965,0,0,1,.571-.187.976.976,0,0,1,.8.417,1.014,1.014,0,0,1-.221,1.4L1575.3,471h11.568l-3.908-2.875a1.013,1.013,0,0,1-.221-1.395.976.976,0,0,1,.8-.417.962.962,0,0,1,.57.187l6.111,4.5h1.642a.991.991,0,0,1,.979,1v4.5a.991.991,0,0,1-.979,1h-.694l-1.781,7.73A.981.981,0,0,1,1588.429,486Zm-15.417-8.5h0l1.5,6.5h13.143l1.5-6.5Zm-1.722-4.5h0v2.5h19.589V473Z"/>
          <path id="Fill_238" data-name="Fill 238" class="cls-8" d="M1579.612,482.75a.742.742,0,0,1-.735-.75v-2.5a.735.735,0,1,1,1.47,0V482a.742.742,0,0,1-.735.75"/>
          <path id="Fill_239" data-name="Fill 239" class="cls-8" d="M1582.551,482.75a.742.742,0,0,1-.735-.75v-2.5a.735.735,0,1,1,1.469,0V482a.742.742,0,0,1-.735.75"/>
          <path id="Fill_240" data-name="Fill 240" class="cls-8" d="M1585.49,482.75a.742.742,0,0,1-.735-.75v-2.5a.735.735,0,1,1,1.469,0V482a.742.742,0,0,1-.735.75"/>
          <path id="Fill_241" data-name="Fill 241" class="cls-8" d="M1576.673,482.75a.742.742,0,0,1-.734-.75v-2.5a.735.735,0,1,1,1.469,0V482a.742.742,0,0,1-.735.75"/>
        </g>
        <g id="Maps" transform="translate(21.916)">
          <path id="Fill_370" data-name="Fill 370" class="cls-8" d="M1581.692,417h-4.719a1,1,0,0,1,0-2h1.36v-8h-7.25a1,1,0,0,1-1-1v-9a1,1,0,0,1,1-1h7.25v-2a1,1,0,0,1,2,0v2h6.25a1,1,0,0,1,.833.445l3,4.5a1,1,0,0,1,0,1.111l-3,4.5a1,1,0,0,1-.833.445h-6.25v8h1.359a1,1,0,1,1,0,2Zm-9.609-19h0v7h13.965l2.333-3.5-2.333-3.5Z"/>
        </g>
        <g id="Stats" transform="translate(20.673)">
          <path id="Fill_312" data-name="Fill 312" class="cls-9" d="M1575.61,343.5h-3.345a.991.991,0,0,1-.979-1V337a.991.991,0,0,1,.979-1h3.345a.991.991,0,0,1,.979,1v5.5A.991.991,0,0,1,1575.61,343.5Zm-2.371-5.5h0v3.5h1.391V338Z"/>
          <path id="Fill_313" data-name="Fill 313" class="cls-9" d="M1582.754,343.5h-3.344a.992.992,0,0,1-.98-1v-12a.991.991,0,0,1,.98-1h3.344a.991.991,0,0,1,.98,1v12A.992.992,0,0,1,1582.754,343.5Zm-2.363-12v10h1.39v-10Z"/>
          <path id="Fill_314" data-name="Fill 314" class="cls-9" d="M1589.9,343.5h-3.344a.992.992,0,0,1-.98-1V324a.991.991,0,0,1,.98-1h3.344a.991.991,0,0,1,.98,1v18.5A.992.992,0,0,1,1589.9,343.5ZM1587.53,325h0v16.5h1.391V325Z"/>
          <path id="Fill_315" data-name="Fill 315" class="cls-9" d="M1591.857,347a1,1,0,0,0,0-2h-21.551a1,1,0,0,0,0,2h21.551"/>
        </g>
      </g>
      <g id="Composant_21_4" data-name="Composant 21 – 4" transform="translate(6 647)">
        <g id="Groupe_de_masques_5" data-name="Groupe de masques 5" class="cls-10" transform="translate(-37 -647)">
          <g id="Groupe_219" data-name="Groupe 219">
            <g id="Settings" transform="translate(-1529.581 -27.002)">
              <path id="Fill_525" data-name="Fill 525" class="cls-9" d="M1580.583,700.51a11.471,11.471,0,0,1-2.7-.319.975.975,0,0,1-.744-.951v-1.782a9.461,9.461,0,0,1-2.368-1.378l-1.552.893a.975.975,0,0,1-1.2-.178,11.669,11.669,0,0,1-1.566-2.093.664.664,0,0,1-.068-.12l-.142-.24a11.761,11.761,0,0,1-.915-2.222.977.977,0,0,1,.455-1.123l1.546-.892a9.86,9.86,0,0,1-.1-1.348,9.234,9.234,0,0,1,.107-1.4l-1.546-.9a.983.983,0,0,1-.445-1.13,11.778,11.778,0,0,1,2.721-4.657.974.974,0,0,1,1.2-.171l1.552.9a9.21,9.21,0,0,1,2.319-1.343v-1.781a.977.977,0,0,1,.744-.951,11.615,11.615,0,0,1,5.4,0,.977.977,0,0,1,.749.951v1.782a9.386,9.386,0,0,1,2.363,1.378l1.552-.893a.981.981,0,0,1,1.2.179,11.721,11.721,0,0,1,1.566,2.1c.03.048.059.095.083.14a11.248,11.248,0,0,1,1.038,2.436.978.978,0,0,1-.451,1.125l-1.551.891a8.852,8.852,0,0,1-.01,2.751l1.546.9a.973.973,0,0,1,.446,1.128,11.047,11.047,0,0,1-.974,2.286c-.073.129-.141.251-.215.37a11.764,11.764,0,0,1-1.527,2,.978.978,0,0,1-1.2.171l-1.546-.9a9.29,9.29,0,0,1-2.32,1.343v1.781a.975.975,0,0,1-.749.951A11.4,11.4,0,0,1,1580.583,700.51Zm-5.7-6.605a.985.985,0,0,1,.668.263,7.377,7.377,0,0,0,2.848,1.661.988.988,0,0,1,.695.936v1.671a9.7,9.7,0,0,0,2.975,0v-1.671a.973.973,0,0,1,.69-.936,7.333,7.333,0,0,0,2.819-1.631.968.968,0,0,1,.661-.259.98.98,0,0,1,.494.134l1.448.847a9.228,9.228,0,0,0,.769-1.087c.046-.082.116-.2.191-.328a9.652,9.652,0,0,0,.548-1.157l-1.453-.848a.989.989,0,0,1-.46-1.067,7.434,7.434,0,0,0,.2-1.678,7.274,7.274,0,0,0-.191-1.635.978.978,0,0,1,.47-1.065l1.453-.837a9.068,9.068,0,0,0-.607-1.279s-.009-.015-.015-.027-.012-.023-.015-.027c-.012-.019-.03-.049-.039-.066a9.591,9.591,0,0,0-.813-1.182l-1.453.837a.978.978,0,0,1-1.155-.132,7.456,7.456,0,0,0-2.853-1.662.975.975,0,0,1-.69-.936v-1.671a9.758,9.758,0,0,0-2.975,0v1.671a.977.977,0,0,1-.695.936,7.283,7.283,0,0,0-2.813,1.631.984.984,0,0,1-1.16.125l-1.448-.847a10.123,10.123,0,0,0-.764,1.087,9.126,9.126,0,0,0-.739,1.486l1.449.847a.972.972,0,0,1,.46,1.067,7.413,7.413,0,0,0-.2,1.678,7.6,7.6,0,0,0,.185,1.636.978.978,0,0,1-.464,1.065l-1.459.837a11.061,11.061,0,0,0,.514,1.114l.142.248,0,.009.007.011.009.014a10.2,10.2,0,0,0,.812,1.183l1.459-.837A.976.976,0,0,1,1574.884,693.905Z"/>
              <path id="Fill_526" data-name="Fill 526" class="cls-9" d="M1580.583,692.654a3.9,3.9,0,1,1,3.9-3.9A3.9,3.9,0,0,1,1580.583,692.654Zm0-6.323a2.43,2.43,0,1,0,2.43,2.43A2.433,2.433,0,0,0,1580.58,686.33Z"/>
            </g>
            <path id="Tracé_424" data-name="Tracé 424" class="cls-11" d="M2.5,0H25.025a2.471,2.471,0,0,1,2.5,2.438V52.423a2.471,2.471,0,0,1-2.5,2.438h-7.13L14.057,58.9l-3.847-4.038H2.5A2.471,2.471,0,0,1,0,52.423V2.438A2.471,2.471,0,0,1,2.5,0Z" transform="translate(37.236 583.413)"/>
            <g id="H4" transform="translate(47 588)">
              <text id="fr" class="cls-12" transform="translate(0 15)"><tspan x="0" y="0">fr</tspan></text>
            </g>
            <g id="H4-2" data-name="H4" transform="translate(44 613)">
              <text id="en" class="cls-12" transform="translate(0 15)"><tspan x="0" y="0">en</tspan></text>
            </g>
            <rect id="Separator-4" data-name="Separator" class="cls-8" width="20" height="1" transform="translate(41 612)"/>
          </g>
        </g>
      </g>
      <g id="burgerMenu">
        <path id="Tracé_430" data-name="Tracé 430" class="cls-13" d="M0,0H24" transform="translate(73.5 26.5)"/>
        <path id="Tracé_430-2" data-name="Tracé 430" class="cls-13" d="M0,0H24" transform="translate(73.5 34.5)"/>
        <path id="Tracé_430-3" data-name="Tracé 430" class="cls-13" d="M0,0H17.129" transform="translate(73.5 42.5)"/>
      </g>
    </g>
  </g>
</svg>
