<svg xmlns="http://www.w3.org/2000/svg" width="20.501" height="23.999" viewBox="0 0 20.501 23.999">
  <defs>
    <style>
      .cls-1 {
        fill: #3b5e1c;
      }
    </style>
  </defs>
  <g id="Maps" transform="translate(-1570.083 -393)">
    <path id="Fill_370" data-name="Fill 370" class="cls-1" d="M1581.692,417h-4.719a1,1,0,0,1,0-2h1.36v-8h-7.25a1,1,0,0,1-1-1v-9a1,1,0,0,1,1-1h7.25v-2a1,1,0,0,1,2,0v2h6.25a1,1,0,0,1,.833.445l3,4.5a1,1,0,0,1,0,1.111l-3,4.5a1,1,0,0,1-.833.445h-6.25v8h1.359a1,1,0,1,1,0,2Zm-9.609-19h0v7h13.965l2.333-3.5-2.333-3.5Z"/>
  </g>
</svg>
