<svg xmlns="http://www.w3.org/2000/svg" width="23.51" height="20.635" viewBox="0 0 23.51 20.635">
  <defs>
    <style>
      .cls-1 {
        fill: #3b5e1c;
      }
    </style>
  </defs>
  <g id="Messages" transform="translate(-1569.326 -536.33)">
    <path id="Fill_327" data-name="Fill 327" class="cls-1" d="M1591.857,556.965a.974.974,0,0,1-.656-.255l-3.6-3.306h-12.8a.991.991,0,0,1-.979-1V550.08l-2.86,2.63a.972.972,0,0,1-.657.256.9.9,0,0,1-.4-.085,1,1,0,0,1-.583-.915V537.33a.991.991,0,0,1,.979-1h17.055a.991.991,0,0,1,.98,1v3h3.516a.991.991,0,0,1,.979,1v14.635a1,1,0,0,1-.582.914A.909.909,0,0,1,1591.857,556.965Zm-3.875-5.56a.958.958,0,0,1,.657.26l2.238,2.055V542.33h-2.537v6.075a.991.991,0,0,1-.98,1h-11.578v2Zm-16.7-13.075v11.39l2.238-2.055a.956.956,0,0,1,.3-.191.971.971,0,0,1,.357-.069h12.2V538.33Z"/>
  </g>
</svg>
