<svg xmlns="http://www.w3.org/2000/svg" width="23.51" height="19.687" viewBox="0 0 23.51 19.687">
  <defs>
    <style>
      .cls-1 {
        fill: #3b5e1c;
      }
    </style>
  </defs>
  <g id="Shopping" transform="translate(-1569.326 -466.313)">
    <path id="Fill_237" data-name="Fill 237" class="cls-1" d="M1588.429,486h-14.694a.983.983,0,0,1-.954-.77L1571,477.5h-.694a.991.991,0,0,1-.979-1V472a.991.991,0,0,1,.979-1h1.643l6.11-4.5a.965.965,0,0,1,.571-.187.976.976,0,0,1,.8.417,1.014,1.014,0,0,1-.221,1.4L1575.3,471h11.568l-3.908-2.875a1.013,1.013,0,0,1-.221-1.395.976.976,0,0,1,.8-.417.962.962,0,0,1,.57.187l6.111,4.5h1.642a.991.991,0,0,1,.979,1v4.5a.991.991,0,0,1-.979,1h-.694l-1.781,7.73A.981.981,0,0,1,1588.429,486Zm-15.417-8.5h0l1.5,6.5h13.143l1.5-6.5Zm-1.722-4.5h0v2.5h19.589V473Z"/>
    <path id="Fill_238" data-name="Fill 238" class="cls-1" d="M1579.612,482.75a.742.742,0,0,1-.735-.75v-2.5a.735.735,0,1,1,1.47,0V482a.742.742,0,0,1-.735.75"/>
    <path id="Fill_239" data-name="Fill 239" class="cls-1" d="M1582.551,482.75a.742.742,0,0,1-.735-.75v-2.5a.735.735,0,1,1,1.469,0V482a.742.742,0,0,1-.735.75"/>
    <path id="Fill_240" data-name="Fill 240" class="cls-1" d="M1585.49,482.75a.742.742,0,0,1-.735-.75v-2.5a.735.735,0,1,1,1.469,0V482a.742.742,0,0,1-.735.75"/>
    <path id="Fill_241" data-name="Fill 241" class="cls-1" d="M1576.673,482.75a.742.742,0,0,1-.734-.75v-2.5a.735.735,0,1,1,1.469,0V482a.742.742,0,0,1-.735.75"/>
  </g>
</svg>
