<svg id="undraw_file_analysis_8k9b" xmlns="http://www.w3.org/2000/svg" width="212.548" height="182.823" viewBox="0 0 212.548 182.823">
  <defs>
    <style>
      .cls-1 {
        fill: #e6e6e6;
      }

      .cls-2 {
        fill: #77bc38;
      }

      .cls-3 {
        fill: #2a2b31;
      }

      .cls-4 {
        fill: #455060;
      }

      .cls-5 {
        fill: #ffb8b8;
      }

      .cls-6 {
        fill: #2f2e41;
      }
    </style>
  </defs>
  <circle id="Ellipse_75" data-name="Ellipse 75" class="cls-1" cx="1.967" cy="1.967" r="1.967" transform="translate(0)"/>
  <circle id="Ellipse_76" data-name="Ellipse 76" class="cls-1" cx="1.967" cy="1.967" r="1.967" transform="translate(9.955)"/>
  <circle id="Ellipse_77" data-name="Ellipse 77" class="cls-1" cx="1.967" cy="1.967" r="1.967" transform="translate(19.909)"/>
  <circle id="Ellipse_78" data-name="Ellipse 78" class="cls-1" cx="1.967" cy="1.967" r="1.967" transform="translate(29.864)"/>
  <circle id="Ellipse_79" data-name="Ellipse 79" class="cls-1" cx="1.967" cy="1.967" r="1.967" transform="translate(39.819)"/>
  <circle id="Ellipse_80" data-name="Ellipse 80" class="cls-1" cx="1.967" cy="1.967" r="1.967" transform="translate(49.773)"/>
  <circle id="Ellipse_81" data-name="Ellipse 81" class="cls-1" cx="1.967" cy="1.967" r="1.967" transform="translate(59.728)"/>
  <circle id="Ellipse_82" data-name="Ellipse 82" class="cls-1" cx="1.967" cy="1.967" r="1.967" transform="translate(69.683)"/>
  <circle id="Ellipse_83" data-name="Ellipse 83" class="cls-1" cx="1.967" cy="1.967" r="1.967" transform="translate(79.637)"/>
  <circle id="Ellipse_84" data-name="Ellipse 84" class="cls-1" cx="1.967" cy="1.967" r="1.967" transform="translate(89.592)"/>
  <circle id="Ellipse_85" data-name="Ellipse 85" class="cls-1" cx="1.967" cy="1.967" r="1.967" transform="translate(0 10.08)"/>
  <circle id="Ellipse_86" data-name="Ellipse 86" class="cls-1" cx="1.967" cy="1.967" r="1.967" transform="translate(9.955 10.08)"/>
  <circle id="Ellipse_87" data-name="Ellipse 87" class="cls-1" cx="1.967" cy="1.967" r="1.967" transform="translate(19.909 10.08)"/>
  <circle id="Ellipse_88" data-name="Ellipse 88" class="cls-2" cx="1.967" cy="1.967" r="1.967" transform="translate(29.864 10.08)"/>
  <circle id="Ellipse_89" data-name="Ellipse 89" class="cls-1" cx="1.967" cy="1.967" r="1.967" transform="translate(39.819 10.08)"/>
  <circle id="Ellipse_90" data-name="Ellipse 90" class="cls-1" cx="1.967" cy="1.967" r="1.967" transform="translate(49.773 10.08)"/>
  <circle id="Ellipse_91" data-name="Ellipse 91" class="cls-1" cx="1.967" cy="1.967" r="1.967" transform="translate(59.728 10.08)"/>
  <circle id="Ellipse_92" data-name="Ellipse 92" class="cls-1" cx="1.967" cy="1.967" r="1.967" transform="translate(69.683 10.08)"/>
  <circle id="Ellipse_93" data-name="Ellipse 93" class="cls-1" cx="1.967" cy="1.967" r="1.967" transform="translate(79.637 10.08)"/>
  <circle id="Ellipse_94" data-name="Ellipse 94" class="cls-1" cx="1.967" cy="1.967" r="1.967" transform="translate(89.592 10.08)"/>
  <circle id="Ellipse_95" data-name="Ellipse 95" class="cls-1" cx="1.967" cy="1.967" r="1.967" transform="translate(0 20.159)"/>
  <circle id="Ellipse_96" data-name="Ellipse 96" class="cls-1" cx="1.967" cy="1.967" r="1.967" transform="translate(9.955 20.159)"/>
  <circle id="Ellipse_97" data-name="Ellipse 97" class="cls-1" cx="1.967" cy="1.967" r="1.967" transform="translate(19.909 20.159)"/>
  <circle id="Ellipse_98" data-name="Ellipse 98" class="cls-1" cx="1.967" cy="1.967" r="1.967" transform="translate(29.864 20.159)"/>
  <circle id="Ellipse_99" data-name="Ellipse 99" class="cls-1" cx="1.967" cy="1.967" r="1.967" transform="translate(39.819 20.159)"/>
  <circle id="Ellipse_100" data-name="Ellipse 100" class="cls-1" cx="1.967" cy="1.967" r="1.967" transform="translate(49.773 20.159)"/>
  <circle id="Ellipse_101" data-name="Ellipse 101" class="cls-1" cx="1.967" cy="1.967" r="1.967" transform="translate(59.728 20.159)"/>
  <circle id="Ellipse_102" data-name="Ellipse 102" class="cls-1" cx="1.967" cy="1.967" r="1.967" transform="translate(69.683 20.159)"/>
  <circle id="Ellipse_103" data-name="Ellipse 103" class="cls-1" cx="1.967" cy="1.967" r="1.967" transform="translate(79.637 20.159)"/>
  <circle id="Ellipse_104" data-name="Ellipse 104" class="cls-1" cx="1.967" cy="1.967" r="1.967" transform="translate(89.592 20.159)"/>
  <circle id="Ellipse_105" data-name="Ellipse 105" class="cls-1" cx="1.967" cy="1.967" r="1.967" transform="translate(0 30.239)"/>
  <circle id="Ellipse_106" data-name="Ellipse 106" class="cls-1" cx="1.967" cy="1.967" r="1.967" transform="translate(9.955 30.239)"/>
  <circle id="Ellipse_107" data-name="Ellipse 107" class="cls-1" cx="1.967" cy="1.967" r="1.967" transform="translate(19.909 30.239)"/>
  <circle id="Ellipse_108" data-name="Ellipse 108" class="cls-1" cx="1.967" cy="1.967" r="1.967" transform="translate(29.864 30.239)"/>
  <circle id="Ellipse_109" data-name="Ellipse 109" class="cls-1" cx="1.967" cy="1.967" r="1.967" transform="translate(39.819 30.239)"/>
  <circle id="Ellipse_110" data-name="Ellipse 110" class="cls-1" cx="1.967" cy="1.967" r="1.967" transform="translate(49.773 30.239)"/>
  <circle id="Ellipse_111" data-name="Ellipse 111" class="cls-1" cx="1.967" cy="1.967" r="1.967" transform="translate(59.728 30.239)"/>
  <circle id="Ellipse_112" data-name="Ellipse 112" class="cls-1" cx="1.967" cy="1.967" r="1.967" transform="translate(69.683 30.239)"/>
  <circle id="Ellipse_113" data-name="Ellipse 113" class="cls-1" cx="1.967" cy="1.967" r="1.967" transform="translate(79.637 30.239)"/>
  <circle id="Ellipse_114" data-name="Ellipse 114" class="cls-1" cx="1.967" cy="1.967" r="1.967" transform="translate(89.592 30.239)"/>
  <circle id="Ellipse_115" data-name="Ellipse 115" class="cls-1" cx="1.967" cy="1.967" r="1.967" transform="translate(0 40.318)"/>
  <circle id="Ellipse_116" data-name="Ellipse 116" class="cls-2" cx="1.967" cy="1.967" r="1.967" transform="translate(9.955 40.318)"/>
  <circle id="Ellipse_117" data-name="Ellipse 117" class="cls-1" cx="1.967" cy="1.967" r="1.967" transform="translate(19.909 40.318)"/>
  <circle id="Ellipse_118" data-name="Ellipse 118" class="cls-1" cx="1.967" cy="1.967" r="1.967" transform="translate(29.864 40.318)"/>
  <circle id="Ellipse_119" data-name="Ellipse 119" class="cls-1" cx="1.967" cy="1.967" r="1.967" transform="translate(39.819 40.318)"/>
  <circle id="Ellipse_120" data-name="Ellipse 120" class="cls-1" cx="1.967" cy="1.967" r="1.967" transform="translate(49.773 40.318)"/>
  <circle id="Ellipse_121" data-name="Ellipse 121" class="cls-1" cx="1.967" cy="1.967" r="1.967" transform="translate(59.728 40.318)"/>
  <circle id="Ellipse_122" data-name="Ellipse 122" class="cls-1" cx="1.967" cy="1.967" r="1.967" transform="translate(69.683 40.318)"/>
  <circle id="Ellipse_123" data-name="Ellipse 123" class="cls-1" cx="1.967" cy="1.967" r="1.967" transform="translate(79.637 40.318)"/>
  <circle id="Ellipse_124" data-name="Ellipse 124" class="cls-1" cx="1.967" cy="1.967" r="1.967" transform="translate(89.592 40.318)"/>
  <circle id="Ellipse_125" data-name="Ellipse 125" class="cls-1" cx="1.967" cy="1.967" r="1.967" transform="translate(0 50.398)"/>
  <circle id="Ellipse_126" data-name="Ellipse 126" class="cls-1" cx="1.967" cy="1.967" r="1.967" transform="translate(9.955 50.398)"/>
  <circle id="Ellipse_127" data-name="Ellipse 127" class="cls-1" cx="1.967" cy="1.967" r="1.967" transform="translate(19.909 50.398)"/>
  <circle id="Ellipse_128" data-name="Ellipse 128" class="cls-1" cx="1.967" cy="1.967" r="1.967" transform="translate(29.864 50.398)"/>
  <circle id="Ellipse_129" data-name="Ellipse 129" class="cls-1" cx="1.967" cy="1.967" r="1.967" transform="translate(39.819 50.398)"/>
  <circle id="Ellipse_130" data-name="Ellipse 130" class="cls-1" cx="1.967" cy="1.967" r="1.967" transform="translate(49.773 50.398)"/>
  <circle id="Ellipse_131" data-name="Ellipse 131" class="cls-1" cx="1.967" cy="1.967" r="1.967" transform="translate(59.728 50.398)"/>
  <circle id="Ellipse_132" data-name="Ellipse 132" class="cls-1" cx="1.967" cy="1.967" r="1.967" transform="translate(69.683 50.398)"/>
  <circle id="Ellipse_133" data-name="Ellipse 133" class="cls-1" cx="1.967" cy="1.967" r="1.967" transform="translate(79.637 50.398)"/>
  <circle id="Ellipse_134" data-name="Ellipse 134" class="cls-1" cx="1.967" cy="1.967" r="1.967" transform="translate(89.592 50.398)"/>
  <circle id="Ellipse_135" data-name="Ellipse 135" class="cls-1" cx="1.967" cy="1.967" r="1.967" transform="translate(0 60.478)"/>
  <circle id="Ellipse_136" data-name="Ellipse 136" class="cls-1" cx="1.967" cy="1.967" r="1.967" transform="translate(9.955 60.478)"/>
  <circle id="Ellipse_137" data-name="Ellipse 137" class="cls-2" cx="1.967" cy="1.967" r="1.967" transform="translate(19.909 60.478)"/>
  <circle id="Ellipse_138" data-name="Ellipse 138" class="cls-1" cx="1.967" cy="1.967" r="1.967" transform="translate(29.864 60.478)"/>
  <circle id="Ellipse_139" data-name="Ellipse 139" class="cls-1" cx="1.967" cy="1.967" r="1.967" transform="translate(39.819 60.478)"/>
  <circle id="Ellipse_140" data-name="Ellipse 140" class="cls-1" cx="1.967" cy="1.967" r="1.967" transform="translate(49.773 60.478)"/>
  <circle id="Ellipse_141" data-name="Ellipse 141" class="cls-1" cx="1.967" cy="1.967" r="1.967" transform="translate(59.728 60.478)"/>
  <circle id="Ellipse_142" data-name="Ellipse 142" class="cls-1" cx="1.967" cy="1.967" r="1.967" transform="translate(69.683 60.478)"/>
  <circle id="Ellipse_143" data-name="Ellipse 143" class="cls-1" cx="1.967" cy="1.967" r="1.967" transform="translate(79.637 60.478)"/>
  <circle id="Ellipse_144" data-name="Ellipse 144" class="cls-1" cx="1.967" cy="1.967" r="1.967" transform="translate(89.592 60.478)"/>
  <circle id="Ellipse_145" data-name="Ellipse 145" class="cls-1" cx="1.967" cy="1.967" r="1.967" transform="translate(0 70.557)"/>
  <circle id="Ellipse_146" data-name="Ellipse 146" class="cls-1" cx="1.967" cy="1.967" r="1.967" transform="translate(9.955 70.557)"/>
  <circle id="Ellipse_147" data-name="Ellipse 147" class="cls-1" cx="1.967" cy="1.967" r="1.967" transform="translate(19.909 70.557)"/>
  <circle id="Ellipse_148" data-name="Ellipse 148" class="cls-1" cx="1.967" cy="1.967" r="1.967" transform="translate(29.864 70.557)"/>
  <circle id="Ellipse_149" data-name="Ellipse 149" class="cls-1" cx="1.967" cy="1.967" r="1.967" transform="translate(39.819 70.557)"/>
  <circle id="Ellipse_150" data-name="Ellipse 150" class="cls-1" cx="1.967" cy="1.967" r="1.967" transform="translate(49.773 70.557)"/>
  <circle id="Ellipse_151" data-name="Ellipse 151" class="cls-1" cx="1.967" cy="1.967" r="1.967" transform="translate(59.728 70.557)"/>
  <circle id="Ellipse_152" data-name="Ellipse 152" class="cls-1" cx="1.967" cy="1.967" r="1.967" transform="translate(69.683 70.557)"/>
  <circle id="Ellipse_153" data-name="Ellipse 153" class="cls-1" cx="1.967" cy="1.967" r="1.967" transform="translate(79.637 70.557)"/>
  <circle id="Ellipse_154" data-name="Ellipse 154" class="cls-1" cx="1.967" cy="1.967" r="1.967" transform="translate(89.592 70.557)"/>
  <circle id="Ellipse_155" data-name="Ellipse 155" class="cls-1" cx="1.967" cy="1.967" r="1.967" transform="translate(0 80.637)"/>
  <circle id="Ellipse_156" data-name="Ellipse 156" class="cls-1" cx="1.967" cy="1.967" r="1.967" transform="translate(9.955 80.637)"/>
  <circle id="Ellipse_157" data-name="Ellipse 157" class="cls-1" cx="1.967" cy="1.967" r="1.967" transform="translate(19.909 80.637)"/>
  <circle id="Ellipse_158" data-name="Ellipse 158" class="cls-1" cx="1.967" cy="1.967" r="1.967" transform="translate(29.864 80.637)"/>
  <circle id="Ellipse_159" data-name="Ellipse 159" class="cls-1" cx="1.967" cy="1.967" r="1.967" transform="translate(39.819 80.637)"/>
  <circle id="Ellipse_160" data-name="Ellipse 160" class="cls-1" cx="1.967" cy="1.967" r="1.967" transform="translate(49.773 80.637)"/>
  <circle id="Ellipse_161" data-name="Ellipse 161" class="cls-1" cx="1.967" cy="1.967" r="1.967" transform="translate(59.728 80.637)"/>
  <circle id="Ellipse_162" data-name="Ellipse 162" class="cls-1" cx="1.967" cy="1.967" r="1.967" transform="translate(69.683 80.637)"/>
  <circle id="Ellipse_163" data-name="Ellipse 163" class="cls-1" cx="1.967" cy="1.967" r="1.967" transform="translate(79.637 80.637)"/>
  <circle id="Ellipse_164" data-name="Ellipse 164" class="cls-1" cx="1.967" cy="1.967" r="1.967" transform="translate(89.592 80.637)"/>
  <circle id="Ellipse_165" data-name="Ellipse 165" class="cls-1" cx="1.967" cy="1.967" r="1.967" transform="translate(0 90.717)"/>
  <circle id="Ellipse_166" data-name="Ellipse 166" class="cls-1" cx="1.967" cy="1.967" r="1.967" transform="translate(9.955 90.717)"/>
  <circle id="Ellipse_167" data-name="Ellipse 167" class="cls-1" cx="1.967" cy="1.967" r="1.967" transform="translate(19.909 90.717)"/>
  <circle id="Ellipse_168" data-name="Ellipse 168" class="cls-1" cx="1.967" cy="1.967" r="1.967" transform="translate(29.864 90.717)"/>
  <circle id="Ellipse_169" data-name="Ellipse 169" class="cls-1" cx="1.967" cy="1.967" r="1.967" transform="translate(39.819 90.717)"/>
  <circle id="Ellipse_170" data-name="Ellipse 170" class="cls-1" cx="1.967" cy="1.967" r="1.967" transform="translate(49.773 90.717)"/>
  <circle id="Ellipse_171" data-name="Ellipse 171" class="cls-1" cx="1.967" cy="1.967" r="1.967" transform="translate(59.728 90.717)"/>
  <circle id="Ellipse_172" data-name="Ellipse 172" class="cls-1" cx="1.967" cy="1.967" r="1.967" transform="translate(69.683 90.717)"/>
  <circle id="Ellipse_173" data-name="Ellipse 173" class="cls-1" cx="1.967" cy="1.967" r="1.967" transform="translate(79.637 90.717)"/>
  <circle id="Ellipse_174" data-name="Ellipse 174" class="cls-1" cx="1.967" cy="1.967" r="1.967" transform="translate(89.592 90.717)"/>
  <path id="Tracé_179" data-name="Tracé 179" class="cls-1" d="M427.216,193.83a2.486,2.486,0,0,1,2.486,2.486v99.451a2.486,2.486,0,0,1-2.486,2.486H355.86a2.486,2.486,0,0,1-2.486-2.486V196.316a2.486,2.486,0,0,1,2.486-2.486h71.356" transform="translate(-311.647 -176.255)"/>
  <path id="Tracé_180" data-name="Tracé 180" class="cls-3" d="M362.991,302.319h70.777V203.447H362.991Z" transform="translate(-318.488 -183.096)"/>
  <path id="Tracé_181" data-name="Tracé 181" class="cls-1" d="M455.606,257.643a.5.5,0,0,1,.5.5v.995a.5.5,0,0,1-.5.5H416.322a.5.5,0,0,1-.5-.5v-.995a.5.5,0,0,1,.5-.5h39.283" transform="translate(-356.072 -221.65)"/>
  <path id="Tracé_182" data-name="Tracé 182" class="cls-1" d="M455.606,274.009a.5.5,0,0,1,.5.5v.995a.5.5,0,0,1-.5.5H416.322a.5.5,0,0,1-.5-.5v-.995a.5.5,0,0,1,.5-.5h39.283" transform="translate(-356.072 -233.292)"/>
  <path id="Tracé_183" data-name="Tracé 183" class="cls-2" d="M455.606,290.376a.5.5,0,0,1,.5.5v.995a.5.5,0,0,1-.5.5H416.322a.5.5,0,0,1-.5-.5v-.995a.5.5,0,0,1,.5-.5h39.283" transform="translate(-356.072 -244.935)"/>
  <path id="Tracé_184" data-name="Tracé 184" class="cls-1" d="M455.606,307.1a.5.5,0,0,1,.5.5v.994a.5.5,0,0,1-.5.5H416.322a.5.5,0,0,1-.5-.5V307.6a.5.5,0,0,1,.5-.5h39.283" transform="translate(-356.072 -256.832)"/>
  <path id="Tracé_185" data-name="Tracé 185" class="cls-1" d="M455.606,323.467a.5.5,0,0,1,.5.5v.994a.5.5,0,0,1-.5.5H416.322a.5.5,0,0,1-.5-.5v-.995a.5.5,0,0,1,.5-.5h39.283" transform="translate(-356.072 -268.475)"/>
  <path id="Tracé_186" data-name="Tracé 186" class="cls-1" d="M455.606,339.834a.5.5,0,0,1,.5.5v.994a.5.5,0,0,1-.5.5H416.322a.5.5,0,0,1-.5-.5v-.994a.5.5,0,0,1,.5-.5h39.283" transform="translate(-356.072 -280.118)"/>
  <path id="Tracé_187" data-name="Tracé 187" class="cls-2" d="M416.994,394.89a.578.578,0,0,0-.577.577v26.818a.578.578,0,0,0,.577.577h38.715a.578.578,0,0,0,.577-.577V395.467a.578.578,0,0,0-.577-.577Z" transform="translate(-356.493 -319.283)"/>
  <path id="Tracé_188" data-name="Tracé 188" class="cls-4" d="M276.239,78.691l-.406-.108L284.7,45.221h51.441v.421H285.025Z" transform="translate(-196.219 -32.169)"/>
  <path id="Tracé_189" data-name="Tracé 189" class="cls-4" d="M697.276,172.424a4.413,4.413,0,1,1,4.413-4.413A4.413,4.413,0,0,1,697.276,172.424Zm0-8.407a3.993,3.993,0,1,0,3.993,3.993,3.993,3.993,0,0,0-3.993-3.993Z" transform="translate(-553.147 -154.748)"/>
  <circle id="Ellipse_175" data-name="Ellipse 175" class="cls-2" cx="1.681" cy="1.681" r="1.681" transform="translate(142.447 11.581)"/>
  <path id="Tracé_190" data-name="Tracé 190" class="cls-4" d="M124.68,356.941l.406.108-8.932,33.345-51.441-.1v-.421l51.118.1Z" transform="translate(-46.034 -253.917)"/>
  <path id="Tracé_191" data-name="Tracé 191" class="cls-4" d="M248.086,589.4a4.413,4.413,0,1,1-4.422,4.405A4.413,4.413,0,0,1,248.086,589.4Zm-.016,8.407a3.993,3.993,0,1,0-3.985-4,3.993,3.993,0,0,0,3.985,4Z" transform="translate(-233.602 -457.647)"/>
  <circle id="Ellipse_176" data-name="Ellipse 176" class="cls-2" cx="1.681" cy="1.681" r="1.681" transform="translate(12.794 134.48)"/>
  <path id="Tracé_192" data-name="Tracé 192" class="cls-5" d="M609.517,560.123h-2.966l.53-16.421,7.84.424Z" transform="translate(-431.481 -386.772)"/>
  <path id="Tracé_193" data-name="Tracé 193" class="cls-4" d="M801.164,741.346c-.9.409-1.645-2.9-2.4-2.16a6.367,6.367,0,0,1-7.115,1.622l-.065-.011a1.321,1.321,0,0,1-.832-1.721h0a1.321,1.321,0,0,1,.916-.817l2.247-.562,3.528-6.2,3.6-.243h0a8.6,8.6,0,0,1,1.591,7.34C802.307,739.923,801.8,741.054,801.164,741.346Z" transform="translate(-622.722 -558.558)"/>
  <path id="Tracé_194" data-name="Tracé 194" class="cls-5" d="M694,551.513l-2.758,1.091-5.547-15.465,7.446-2.489Z" transform="translate(-487.778 -380.333)"/>
  <path id="Tracé_195" data-name="Tracé 195" class="cls-4" d="M910.677,732.872c-.682.709-2.6-2.093-3.027-1.125a6.366,6.366,0,0,1-6.02,4.125l-.065.014a1.32,1.32,0,0,1-1.407-1.294h0a1.321,1.321,0,0,1,.551-1.1l1.883-1.349,1-7.066,3.259-1.551h0a8.6,8.6,0,0,1,4.179,6.24C911.216,731.129,911.163,732.366,910.677,732.872Z" transform="translate(-700.611 -553.065)"/>
  <path id="Tracé_196" data-name="Tracé 196" class="cls-5" d="M873.509,403.779l-4.554,1.171a2.383,2.383,0,0,1-2.975-2.217h0a2.383,2.383,0,0,1,2.458-2.474l4.012.129,7.73-2.815-7.306-5.449.848-7.628,14.239,11.431a2.366,2.366,0,0,1,.879,1.676h0a2.365,2.365,0,0,1-1.734,2.45C883.768,402.777,878.907,403.611,873.509,403.779Z" transform="translate(-676.297 -311.89)"/>
  <circle id="Ellipse_177" data-name="Ellipse 177" class="cls-5" cx="7.416" cy="7.416" r="7.416" transform="translate(179.415 48.453)"/>
  <path id="Tracé_197" data-name="Tracé 197" class="cls-5" d="M857.379,345.03l-9.958,4.026a13.459,13.459,0,0,0-2.331-8.9l8.263-1.907C853.246,340.774,854.611,343.03,857.379,345.03Z" transform="translate(-661.437 -278.991)"/>
  <path id="Tracé_198" data-name="Tracé 198" class="cls-2" d="M846.646,374.309c-8.028.643-12.418-.423-19.175-4.344l2.543-5.933h0a4.907,4.907,0,0,1,2.021-4.7l2.64-1.87,8.052-2.331.361.018a4.407,4.407,0,0,1,4.174,4.064C849.011,364.443,849.022,369.5,846.646,374.309Z" transform="translate(-648.904 -291.002)"/>
  <path id="Tracé_199" data-name="Tracé 199" class="cls-4" d="M839.1,416.992l-17.162-1.907-1.271-5.509c-2.818-4.254-1.588-8.15,1.7-11.865,5.984,3.841,11.539,5.5,19.493,4.238C839.742,407.093,837.789,412.149,839.1,416.992Z" transform="translate(-642.95 -321.289)"/>
  <path id="Tracé_200" data-name="Tracé 200" class="cls-4" d="M841.174,521.925l-13.666-.742L823.058,485.8l-3.6,35.172-16.209-.741c4.945-23.123,8.379-45.074,7.416-65.26l16.951,1.483c5.745,6.057,8.6,15.726,10.276,27.227A309.712,309.712,0,0,1,841.174,521.925Z" transform="translate(-631.672 -362.022)"/>
  <circle id="Ellipse_178" data-name="Ellipse 178" class="cls-4" cx="2.549" cy="2.549" r="2.549" transform="translate(192.445 44.02)"/>
  <path id="Tracé_201" data-name="Tracé 201" class="cls-6" d="M874.488,286.192a2.547,2.547,0,0,1,2.548-2.382c-.053-.007-.1-.015-.158-.018a2.549,2.549,0,1,0-.327,5.087c.054,0,.107,0,.159,0A2.547,2.547,0,0,1,874.488,286.192Z" transform="translate(-682.12 -240.247)"/>
  <path id="Tracé_202" data-name="Tracé 202" class="cls-4" d="M839.212,294.173c-2.273-1.886-8.794.511-9.215,1.779-3.074.419-5.4,2.213-5.4,5.4h0a9.223,9.223,0,0,0,6.153,0c3.582,2.919,3.827,6.589,1.649,10.8l2.68.054,3.322-4.855.159,4.925,6.143-.123V305.1a14.754,14.754,0,0,0-1.575-6.76A13.559,13.559,0,0,0,839.212,294.173Z" transform="translate(-646.858 -247.14)"/>
  <ellipse id="Ellipse_179" data-name="Ellipse 179" class="cls-5" cx="1.219" cy="1.707" rx="1.219" ry="1.707" transform="translate(185.414 56.089)"/>
  <path id="Tracé_203" data-name="Tracé 203" class="cls-2" d="M791.781,559.928a.428.428,0,0,1,.428.428v17.121a.428.428,0,0,1-.428.428H779.5a.428.428,0,0,1-.428-.428V560.356a.428.428,0,0,1,.428-.428h12.285" transform="translate(-614.472 -436.685)"/>
  <path id="Tracé_204" data-name="Tracé 204" class="cls-5" d="M817.074,419.647l.415,7.191a3.123,3.123,0,0,1-3.572,3.269h0c-1.827-.269-1.868-2.055-1.421-3.847l1.706-6.825c4.186-15.008,5.316-29.74,5.1-44.107a3.607,3.607,0,0,1,3.7-3.67h0a3.605,3.605,0,0,1,3.5,3.731C825.917,392.26,823.456,407.581,817.074,419.647Z" transform="translate(-638.083 -302.756)"/>
</svg>
